<?xml version="1.0" standalone="no"?>
<!DOCTYPE svg PUBLIC "-//W3C//DTD SVG 20010904//EN"
 "http://www.w3.org/TR/2001/REC-SVG-20010904/DTD/svg10.dtd">
<svg version="1.0" xmlns="http://www.w3.org/2000/svg"
 width="3000.000000pt" height="3000.000000pt" viewBox="0 0 3000.000000 3000.000000"
 preserveAspectRatio="xMidYMid meet">
<metadata>
Created by potrace 1.14, written by Peter Selinger 2001-2017
</metadata>
<g transform="translate(0.000000,3000.000000) scale(0.100000,-0.100000)"
fill="#000000" stroke="none">
<path d="M2755 29993 c-863 -78 -1635 -505 -2154 -1193 -307 -407 -497 -868
-578 -1405 -17 -115 -18 -601 -18 -12395 0 -11794 1 -12280 18 -12395 80 -532
267 -988 569 -1392 440 -589 1069 -994 1779 -1147 63 -14 168 -33 234 -43 115
-17 601 -18 12395 -18 11794 0 12280 1 12395 18 66 10 171 29 234 43 710 153
1339 558 1779 1147 302 404 489 860 569 1392 17 115 18 601 18 12395 0 11794
-1 12280 -18 12395 -80 532 -267 988 -569 1392 -340 454 -794 802 -1313 1006
-214 84 -400 135 -665 180 l-125 21 -12255 1 c-6740 1 -12273 0 -12295 -2z
m8426 -11100 c1813 -1814 3299 -3305 3302 -3313 3 -10 -1099 -1119 -3297
-3317 l-3301 -3303 -742 742 -743 743 2565 2565 2565 2565 -2570 2570 -2570
2570 737 737 c406 406 742 738 748 738 5 0 1493 -1484 3306 -3297z m12429
-9938 l0 -1155 -4550 0 -4550 0 0 1155 0 1155 4550 0 4550 0 0 -1155z"/>
</g>
</svg>
